<svg width="46" height="35" viewBox="0 0 46 35" fill="none" xmlns="http://www.w3.org/2000/svg">
<g clip-path="url(#clip0_243_183)">
<path d="M19.8656 34.5492L15.208 32.8382L25.1935 0L29.8912 1.46081L19.8656 34.5492Z" fill="white"/>
<path d="M38.5314 17.2445L30.0517 6.83874L33.5186 3.62695L44.4047 16.4741C44.5798 16.6842 45.05 17.2445 45.05 17.2445C45.05 17.2445 44.5798 17.7998 44.4047 18.0149L33.5887 30.9321L29.9316 27.5302L38.5314 17.2495V17.2445Z" fill="white"/>
<path d="M6.51362 17.0849L14.9933 27.4907L11.5264 30.7025L0.645358 17.8554C0.470261 17.6452 0 17.0849 0 17.0849C0 17.0849 0.470261 16.5296 0.645358 16.3145L11.4614 3.40234L15.1184 6.80423L6.51862 17.0849H6.51362Z" fill="white"/>
</g>
<defs>
<clipPath id="clip0_243_183">
<rect width="45.05" height="34.5492" fill="white"/>
</clipPath>
</defs>
</svg>
