<svg width="27" height="31" viewBox="0 0 27 31" fill="none" xmlns="http://www.w3.org/2000/svg">
<path d="M24.0312 5.32902C24.0312 5.3823 24.0278 5.43558 24.0212 5.48554C24.0345 5.39562 24.0445 5.30904 24.0578 5.21912C24.0411 5.33568 24.0112 5.44557 23.9646 5.55214C23.9979 5.47222 24.0312 5.39229 24.0645 5.31237C24.0278 5.39562 23.9879 5.47555 23.9379 5.55214C23.9146 5.58877 23.888 5.62207 23.8646 5.65871C23.7881 5.77193 24.0478 5.43558 23.9546 5.54215C23.9412 5.5588 23.9246 5.57878 23.9113 5.59543C23.8447 5.67203 23.7747 5.74529 23.7015 5.81189C23.6615 5.84853 23.6182 5.88849 23.5749 5.92179C23.5549 5.93844 23.535 5.95509 23.515 5.97174C23.4018 6.06832 23.7381 5.80523 23.6149 5.89515C23.1686 6.21818 22.6858 6.47127 22.1762 6.6844C22.2562 6.6511 22.3361 6.6178 22.416 6.5845C20.8542 7.23721 19.1658 7.57356 17.4973 7.80001C17.5873 7.78669 17.6738 7.7767 17.7638 7.76338C15.3028 8.08974 12.7985 8.14635 10.3208 7.96652C9.65144 7.91657 8.98541 7.84996 8.31937 7.76338C8.40929 7.7767 8.49587 7.78669 8.58578 7.80001C6.91736 7.57356 5.22563 7.23721 3.66711 6.5845C3.74703 6.6178 3.82696 6.6511 3.90688 6.6844C3.40069 6.46794 2.91782 6.21485 2.46824 5.89515C2.35502 5.81522 2.66472 6.05167 2.58147 5.98173C2.56149 5.96508 2.54151 5.94843 2.52153 5.93178C2.47823 5.89515 2.43494 5.85852 2.39498 5.82188C2.32172 5.75195 2.24845 5.68202 2.18185 5.60542C2.1652 5.58544 2.14522 5.56213 2.12857 5.54215C2.04531 5.44557 2.28508 5.75861 2.22847 5.67203C2.20183 5.63206 2.17186 5.59543 2.14855 5.55547C2.10192 5.47888 2.05863 5.39895 2.022 5.3157C2.0553 5.39562 2.0886 5.47555 2.12191 5.55547C2.07861 5.4489 2.04531 5.33901 2.02866 5.22245C2.04198 5.31237 2.05197 5.39895 2.06529 5.48887C2.05197 5.37897 2.05197 5.26908 2.06862 5.15918C2.0553 5.24909 2.04531 5.33568 2.03199 5.42559C2.05197 5.30904 2.08194 5.19914 2.12857 5.08925C2.09526 5.16917 2.06196 5.24909 2.02866 5.32902C2.06862 5.2391 2.11858 5.14919 2.17186 5.06593C2.29174 4.8861 2.06529 5.18582 2.12191 5.12255C2.15521 5.08592 2.18518 5.04928 2.21515 5.01265C2.29507 4.92607 2.38166 4.84281 2.47157 4.76622C2.50821 4.73625 2.54484 4.70628 2.58147 4.6763C2.3417 4.8961 2.50821 4.73292 2.57814 4.68296C2.99108 4.38991 3.44732 4.16679 3.91354 3.97031C3.83362 4.00361 3.75369 4.03691 3.67377 4.07021C5.22563 3.42083 6.90737 3.08448 8.56913 2.86136C8.47922 2.87468 8.39263 2.88467 8.30272 2.89799C10.7737 2.5683 13.2847 2.51169 15.769 2.69152C16.4417 2.74147 17.111 2.80807 17.7771 2.89799C17.6872 2.88467 17.6006 2.87468 17.5107 2.86136C19.1724 3.08448 20.8542 3.42083 22.406 4.07021C22.3261 4.03691 22.2462 4.00361 22.1663 3.97031C22.6325 4.16679 23.0887 4.39324 23.5017 4.68296C23.5649 4.72959 23.7514 4.89277 23.4983 4.6763C23.535 4.70628 23.5716 4.73625 23.6082 4.76622C23.6981 4.84281 23.7847 4.92607 23.8646 5.01265C23.8913 5.04262 23.9179 5.07592 23.9479 5.1059C24.0545 5.22911 23.7814 4.87278 23.9113 5.0626C23.9679 5.14586 24.0145 5.23244 24.0545 5.32569C24.0212 5.24576 23.9879 5.16584 23.9546 5.08592C24.0012 5.19581 24.0312 5.30571 24.0511 5.42226C24.0378 5.33235 24.0278 5.24576 24.0145 5.15585C24.0278 5.21579 24.0312 5.27241 24.0312 5.32902C24.0378 5.85186 24.4841 6.35138 25.0302 6.32807C25.5664 6.30476 26.0359 5.88849 26.0293 5.32902C26.0126 4.24338 25.2433 3.43415 24.3875 2.86802C23.6415 2.37848 22.779 2.04213 21.9331 1.76906C20.0716 1.16962 18.1034 0.883229 16.1586 0.72005C13.9274 0.53356 11.6762 0.546881 9.4483 0.763343C7.5501 0.949833 5.62858 1.24955 3.82363 1.87895C2.13523 2.46839 -0.232532 3.59067 0.100486 5.75195C0.193731 6.35471 0.603343 6.91418 1.05958 7.30382C1.68898 7.84663 2.41163 8.20962 3.17757 8.52932C5.04913 9.30525 7.09719 9.63827 9.09863 9.85473C11.3398 10.0978 13.611 10.1278 15.8589 9.95797C17.9636 9.80145 20.1082 9.50173 22.113 8.82571C22.8889 8.56595 23.6748 8.24959 24.3642 7.80334C24.9137 7.44701 25.4831 6.98079 25.7695 6.37469C25.9294 6.03835 26.0293 5.702 26.0326 5.32569C26.0359 4.80285 25.5697 4.30332 25.0335 4.32663C24.4841 4.35661 24.0378 4.76955 24.0312 5.32902Z" fill="white"/>
<path d="M24.0316 5.32659C24.0316 6.12916 24.0316 6.9284 24.0316 7.73098C24.0316 8.96647 24.0316 10.202 24.0316 11.4408C24.0316 11.7305 24.0582 12.0369 24.0216 12.3266C24.0349 12.2367 24.0449 12.1501 24.0582 12.0602C24.0416 12.1768 24.0116 12.2867 23.965 12.3932C23.9983 12.3133 24.0316 12.2334 24.0649 12.1535C24.0283 12.2367 23.9883 12.3166 23.9383 12.3932C23.915 12.4299 23.8884 12.4632 23.8651 12.4998C23.7885 12.613 24.0482 12.2767 23.955 12.3832C23.9417 12.3999 23.925 12.4199 23.9117 12.4365C23.8451 12.5131 23.7752 12.5864 23.7019 12.653C23.6619 12.6896 23.6186 12.7296 23.5753 12.7629C23.5554 12.7795 23.5354 12.7962 23.5154 12.8128C23.4022 12.9094 23.7385 12.6463 23.6153 12.7362C23.1691 13.0593 22.6862 13.3124 22.1767 13.5255C22.2566 13.4922 22.3365 13.4589 22.4164 13.4256C20.8546 14.0783 19.1662 14.4146 17.4978 14.6411C17.5877 14.6278 17.6743 14.6178 17.7642 14.6045C15.3032 14.9308 12.7989 14.9874 10.3212 14.8076C9.65186 14.7577 8.98583 14.6911 8.31979 14.6045C8.40971 14.6178 8.49629 14.6278 8.58621 14.6411C6.91779 14.4146 5.22606 14.0783 3.66753 13.4256C3.74746 13.4589 3.82738 13.4922 3.9073 13.5255C3.40112 13.3124 2.91824 13.0559 2.46867 12.7362C2.35544 12.6563 2.66515 12.8928 2.58189 12.8228C2.56191 12.8062 2.54193 12.7895 2.52195 12.7729C2.47866 12.7362 2.43537 12.6996 2.3954 12.663C2.32214 12.593 2.24888 12.5231 2.18227 12.4465C2.16562 12.4265 2.14564 12.4032 2.12899 12.3832C2.04573 12.2867 2.28551 12.5997 2.22889 12.5131C2.20225 12.4732 2.17228 12.4365 2.14897 12.3966C2.10235 12.32 2.05906 12.24 2.02242 12.1568C2.05573 12.2367 2.08903 12.3166 2.12233 12.3966C2.07904 12.29 2.04573 12.1801 2.02908 12.0635C2.0424 12.1535 2.05239 12.24 2.06572 12.33C2.03574 12.0902 2.05573 11.8404 2.05573 11.6006C2.05573 11.0645 2.05573 10.5283 2.05573 9.98884C2.05573 8.73003 2.05573 7.47455 2.05573 6.21575C2.05573 5.92269 2.05573 5.6263 2.05573 5.33325C1.38969 5.33325 0.723653 5.33325 0.0576172 5.33325C0.0709379 6.87179 1.55953 7.84087 2.81834 8.38369C4.81644 9.24621 6.9744 9.63251 9.1257 9.86562C11.4468 10.1154 13.8013 10.1387 16.1291 9.94555C18.2704 9.76905 20.465 9.45268 22.4897 8.70006C23.2423 8.42032 24.0049 8.09397 24.651 7.60776C25.2304 7.17151 25.7766 6.62203 25.9564 5.89272C25.9997 5.71289 26.0264 5.52307 26.0297 5.33658C26.033 4.81374 25.5668 4.31421 25.0306 4.33752C24.4845 4.35417 24.0382 4.76712 24.0316 5.32659C24.0316 5.37987 24.0283 5.43315 24.0216 5.48311C24.0349 5.39319 24.0449 5.30661 24.0582 5.21669C24.0416 5.33325 24.0116 5.44314 23.965 5.54971C23.9983 5.46978 24.0316 5.38986 24.0649 5.30994C24.0283 5.39319 23.9883 5.47312 23.9383 5.54971C23.915 5.58634 23.8884 5.61964 23.8651 5.65627C23.7885 5.7695 24.0482 5.43315 23.955 5.53972C23.9417 5.55637 23.925 5.57635 23.9117 5.593C23.8451 5.6696 23.7752 5.74286 23.7019 5.80946C23.6619 5.84609 23.6186 5.88606 23.5753 5.91936C23.5554 5.93601 23.5354 5.95266 23.5154 5.96931C23.4022 6.06589 23.7385 5.8028 23.6153 5.89272C23.1691 6.21574 22.6862 6.46884 22.1767 6.68197C22.2566 6.64867 22.3365 6.61537 22.4164 6.58206C20.8546 7.23478 19.1662 7.57113 17.4978 7.79758C17.5877 7.78426 17.6743 7.77427 17.7642 7.76095C15.3032 8.08731 12.7989 8.14392 10.3212 7.96409C9.65186 7.91414 8.98583 7.84753 8.31979 7.76095C8.40971 7.77427 8.49629 7.78426 8.58621 7.79758C6.91779 7.57113 5.22606 7.23478 3.66753 6.58206C3.74746 6.61537 3.82738 6.64867 3.9073 6.68197C3.40112 6.46551 2.91824 6.21241 2.46867 5.89272C2.35544 5.81279 2.66515 6.04924 2.58189 5.9793C2.56191 5.96265 2.54193 5.946 2.52195 5.92935C2.47866 5.89272 2.43537 5.85609 2.3954 5.81945C2.32214 5.74952 2.24888 5.67959 2.18227 5.60299C2.16562 5.58301 2.14564 5.5597 2.12899 5.53972C2.04573 5.44314 2.28551 5.75618 2.22889 5.6696C2.20225 5.62963 2.17228 5.593 2.14897 5.55304C2.10235 5.47644 2.05906 5.39652 2.02242 5.31327C2.05573 5.39319 2.08903 5.47311 2.12233 5.55304C2.07904 5.44647 2.04573 5.33658 2.02908 5.22002C2.0424 5.30994 2.05239 5.39652 2.06572 5.48644C2.05906 5.43315 2.05573 5.37987 2.05573 5.32992C2.0524 4.80708 1.59949 4.30755 1.05667 4.33086C0.513852 4.35417 0.0576172 4.77045 0.0576172 5.32992C0.0576172 6.05923 0.0576172 6.78521 0.0576172 7.51452C0.0576172 8.72004 0.0576172 9.92556 0.0576172 11.1344C0.0576172 11.4574 0.0576172 11.7805 0.0576172 12.1068C0.0576172 12.6064 0.200815 13.1059 0.493871 13.5122C0.960096 14.1549 1.60615 14.6278 2.31215 14.9841C3.178 15.4237 4.11045 15.7434 5.04956 15.9898C7.35071 16.5959 9.76509 16.839 12.1395 16.8956C14.5905 16.9522 17.0615 16.7924 19.4759 16.3395C20.4916 16.1497 21.5006 15.9032 22.4731 15.5436C23.2923 15.2405 24.0882 14.8809 24.7842 14.3447C25.3304 13.9218 25.8465 13.3523 25.9797 12.6497C26.0397 12.3366 26.0364 12.0402 26.0364 11.7272C26.0364 10.6316 26.0364 9.5326 26.0364 8.43697C26.0364 7.4579 26.0364 6.4755 26.0364 5.49643C26.0364 5.44314 26.0364 5.38653 26.0364 5.33325C26.0364 4.81041 25.5768 4.31088 25.0373 4.33419C24.4878 4.35417 24.0316 4.76712 24.0316 5.32659Z" fill="white"/>
<path d="M24.0316 12.1664C24.0316 12.969 24.0316 13.7682 24.0316 14.5708C24.0316 15.8063 24.0316 17.0418 24.0316 18.2806C24.0316 18.5704 24.0582 18.8767 24.0216 19.1665C24.0349 19.0766 24.0449 18.99 24.0582 18.9001C24.0416 19.0166 24.0116 19.1265 23.965 19.2331C23.9983 19.1531 24.0316 19.0732 24.0649 18.9933C24.0283 19.0766 23.9883 19.1565 23.9383 19.2331C23.915 19.2697 23.8884 19.303 23.8651 19.3396C23.7885 19.4529 24.0482 19.1165 23.955 19.2231C23.9417 19.2397 23.925 19.2597 23.9117 19.2764C23.8451 19.353 23.7752 19.4262 23.7019 19.4928C23.6619 19.5295 23.6186 19.5694 23.5753 19.6027C23.5554 19.6194 23.5354 19.636 23.5154 19.6527C23.4022 19.7492 23.7385 19.4862 23.6153 19.5761C23.1691 19.8991 22.6862 20.1522 22.1767 20.3653C22.2566 20.332 22.3365 20.2987 22.4164 20.2654C20.8546 20.9181 19.1662 21.2545 17.4978 21.4809C17.5877 21.4676 17.6743 21.4576 17.7642 21.4443C15.3032 21.7707 12.7989 21.8273 10.3212 21.6475C9.65186 21.5975 8.98583 21.5309 8.31979 21.4443C8.40971 21.4576 8.49629 21.4676 8.58621 21.4809C6.91779 21.2545 5.22606 20.9181 3.66753 20.2654C3.74746 20.2987 3.82738 20.332 3.9073 20.3653C3.40112 20.1489 2.91824 19.8958 2.46867 19.5761C2.35544 19.4962 2.66515 19.7326 2.58189 19.6627C2.56191 19.646 2.54193 19.6294 2.52195 19.6127C2.47866 19.5761 2.43537 19.5394 2.3954 19.5028C2.32214 19.4329 2.24888 19.3629 2.18227 19.2864C2.16562 19.2664 2.14564 19.2431 2.12899 19.2231C2.04573 19.1265 2.28551 19.4395 2.22889 19.353C2.20225 19.313 2.17228 19.2764 2.14897 19.2364C2.10235 19.1598 2.05906 19.0799 2.02242 18.9966C2.05573 19.0766 2.08903 19.1565 2.12233 19.2364C2.07904 19.1298 2.04573 19.0199 2.02908 18.9034C2.0424 18.9933 2.05239 19.0799 2.06572 19.1698C2.03574 18.93 2.05573 18.6803 2.05573 18.4405C2.05573 17.9043 2.05573 17.3682 2.05573 16.8287C2.05573 15.5699 2.05573 14.3144 2.05573 13.0556C2.05573 12.7625 2.05573 12.4661 2.05573 12.1731C1.38969 12.1731 0.723653 12.1731 0.0576172 12.1731C0.0709379 13.7116 1.55953 14.6807 2.81834 15.2235C4.81644 16.0861 6.9744 16.4724 9.1257 16.7055C11.4468 16.9552 13.8013 16.9785 16.1291 16.7854C18.2704 16.6089 20.465 16.2925 22.4897 15.5399C23.2423 15.2602 24.0049 14.9338 24.651 14.4476C25.2304 14.0114 25.7766 13.4619 25.9564 12.7326C25.9997 12.5527 26.0264 12.3629 26.0297 12.1764C26.033 11.6536 25.5668 11.1541 25.0306 11.1774C24.4845 11.1907 24.0382 11.607 24.0316 12.1664C24.0316 12.2197 24.0283 12.273 24.0216 12.3229C24.0349 12.233 24.0449 12.1464 24.0582 12.0565C24.0416 12.1731 24.0116 12.283 23.965 12.3896C23.9983 12.3096 24.0316 12.2297 24.0649 12.1498C24.0283 12.233 23.9883 12.313 23.9383 12.3896C23.915 12.4262 23.8884 12.4595 23.8651 12.4961C23.7885 12.6093 24.0482 12.273 23.955 12.3796C23.9417 12.3962 23.925 12.4162 23.9117 12.4328C23.8451 12.5094 23.7752 12.5827 23.7019 12.6493C23.6619 12.6859 23.6186 12.7259 23.5753 12.7592C23.5554 12.7759 23.5354 12.7925 23.5154 12.8092C23.4022 12.9057 23.7385 12.6426 23.6153 12.7326C23.1691 13.0556 22.6862 13.3087 22.1767 13.5218C22.2566 13.4885 22.3365 13.4552 22.4164 13.4219C20.8546 14.0746 19.1662 14.411 17.4978 14.6374C17.5877 14.6241 17.6743 14.6141 17.7642 14.6008C15.3032 14.9271 12.7989 14.9838 10.3212 14.8039C9.65186 14.754 8.98583 14.6874 8.31979 14.6008C8.40971 14.6141 8.49629 14.6241 8.58621 14.6374C6.91779 14.411 5.22606 14.0746 3.66753 13.4219C3.74746 13.4552 3.82738 13.4885 3.9073 13.5218C3.40112 13.3087 2.91824 13.0523 2.46867 12.7326C2.35544 12.6526 2.66515 12.8891 2.58189 12.8191C2.56191 12.8025 2.54193 12.7858 2.52195 12.7692C2.47866 12.7326 2.43537 12.6959 2.3954 12.6593C2.32214 12.5894 2.24888 12.5194 2.18227 12.4428C2.16562 12.4229 2.14564 12.3995 2.12899 12.3796C2.04573 12.283 2.28551 12.596 2.22889 12.5094C2.20225 12.4695 2.17228 12.4328 2.14897 12.3929C2.10235 12.3163 2.05906 12.2364 2.02242 12.1531C2.05573 12.233 2.08903 12.313 2.12233 12.3929C2.07904 12.2863 2.04573 12.1764 2.02908 12.0599C2.0424 12.1498 2.05239 12.2364 2.06572 12.3263C2.05906 12.273 2.05573 12.2197 2.05573 12.1698C2.0524 11.6469 1.59949 11.1474 1.05667 11.1707C0.513852 11.194 0.0576172 11.6103 0.0576172 12.1698C0.0576172 12.8991 0.0576172 13.625 0.0576172 14.3544C0.0576172 15.5599 0.0576172 16.7654 0.0576172 17.9709C0.0576172 18.294 0.0576172 18.617 0.0576172 18.9433C0.0576172 19.4429 0.200815 19.9424 0.493871 20.3487C0.960096 20.9914 1.60615 21.4643 2.31215 21.8206C3.178 22.2602 4.11045 22.5799 5.04956 22.8263C7.35071 23.4324 9.76509 23.6755 12.1395 23.7321C14.5905 23.7888 17.0615 23.6289 19.4759 23.176C20.4916 22.9862 21.5006 22.7398 22.4731 22.3801C23.2923 22.077 24.0882 21.7174 24.7842 21.1812C25.3304 20.7583 25.8465 20.1888 25.9797 19.4862C26.0397 19.1731 26.0364 18.8767 26.0364 18.5637C26.0364 17.4681 26.0364 16.3691 26.0364 15.2735C26.0364 14.2944 26.0364 13.312 26.0364 12.3329C26.0364 12.2797 26.0364 12.223 26.0364 12.1698C26.0364 11.6469 25.5768 11.1474 25.0373 11.1707C24.4878 11.1907 24.0316 11.607 24.0316 12.1664Z" fill="white"/>
<path d="M24.0311 19.0082C24.0311 19.8141 24.0311 20.6234 24.0311 21.4293C24.0311 22.6648 24.0311 23.8969 24.0311 25.1324C24.0311 25.4188 24.0578 25.7185 24.0211 26.0049C24.0344 25.915 24.0444 25.8284 24.0578 25.7385C24.0411 25.8517 24.0111 25.9616 23.9678 26.0682C24.0011 25.9883 24.0344 25.9084 24.0677 25.8284C24.0344 25.9117 23.9911 25.9883 23.9445 26.0649C23.9179 26.1048 23.8912 26.1448 23.8613 26.1848C23.788 26.288 24.0478 25.955 23.9612 26.0549C23.9445 26.0715 23.9312 26.0915 23.9146 26.1082C23.848 26.1848 23.778 26.2547 23.7048 26.3246C23.6648 26.3613 23.6248 26.3946 23.5849 26.4312C23.5649 26.4478 23.5416 26.4645 23.5216 26.4845C23.3784 26.601 23.7014 26.3513 23.6248 26.4046C23.1786 26.7309 22.6924 26.984 22.1862 27.1971C22.2661 27.1638 22.346 27.1305 22.426 27.0972C20.8774 27.7466 19.199 28.083 17.5406 28.3094C17.6305 28.2961 17.7171 28.2861 17.807 28.2728C15.326 28.6058 12.8017 28.6624 10.3074 28.4826C9.63141 28.4326 8.95539 28.3627 8.28269 28.2728C8.3726 28.2861 8.45919 28.2961 8.5491 28.3094C6.89067 28.083 5.21226 27.7466 3.66373 27.0972C3.74365 27.1305 3.82358 27.1638 3.9035 27.1971C3.39731 26.9807 2.91111 26.7276 2.46486 26.4046C2.37828 26.3413 2.70464 26.5944 2.57809 26.4911C2.55811 26.4745 2.5348 26.4578 2.51482 26.4379C2.47152 26.4012 2.42823 26.3613 2.38494 26.3246C2.31168 26.2547 2.24174 26.1848 2.17514 26.1082C2.15849 26.0915 2.14517 26.0715 2.12852 26.0549C2.04193 25.955 2.30169 26.2913 2.22842 26.1848C2.20178 26.1481 2.17514 26.1115 2.15183 26.0749C2.10187 25.9949 2.05858 25.915 2.02195 25.8284C2.05525 25.9084 2.08855 25.9883 2.12186 26.0682C2.07856 25.9616 2.04859 25.8517 2.03194 25.7385C2.04526 25.8284 2.05525 25.915 2.06857 26.0049C2.0386 25.7718 2.05858 25.5287 2.05858 25.2923C2.05858 24.7528 2.05858 24.2166 2.05858 23.6771C2.05858 22.4183 2.05858 21.1595 2.05858 19.9007C2.05858 19.6043 2.05858 19.3046 2.05858 19.0082C1.39255 19.0082 0.72651 19.0082 0.0604743 19.0082C0.073795 20.5468 1.56239 21.5159 2.82119 22.0587C4.8193 22.9212 6.97726 23.3075 9.12856 23.5406C11.4497 23.7904 13.8041 23.8137 16.1319 23.6205C18.2732 23.444 20.4678 23.1277 22.4926 22.375C23.2452 22.0953 24.0078 21.7689 24.6539 21.2827C25.2333 20.8465 25.7795 20.297 25.9593 19.5677C26.0026 19.3879 26.0292 19.198 26.0325 19.0116C26.0359 18.4887 25.5697 17.9892 25.0335 18.0125C24.484 18.0325 24.0378 18.4488 24.0311 19.0082C24.0311 19.0615 24.0278 19.1148 24.0211 19.1647C24.0344 19.0748 24.0444 18.9882 24.0578 18.8983C24.0411 19.0149 24.0111 19.1248 23.9645 19.2314C23.9978 19.1514 24.0311 19.0715 24.0644 18.9916C24.0278 19.0748 23.9878 19.1548 23.9379 19.2314C23.9146 19.268 23.8879 19.3013 23.8646 19.3379C23.788 19.4511 24.0478 19.1148 23.9545 19.2214C23.9412 19.238 23.9245 19.258 23.9112 19.2746C23.8446 19.3512 23.7747 19.4245 23.7014 19.4911C23.6615 19.5277 23.6182 19.5677 23.5749 19.601C23.5549 19.6177 23.5349 19.6343 23.5149 19.651C23.4017 19.7475 23.7381 19.4844 23.6148 19.5744C23.1686 19.8974 22.6857 20.1505 22.1762 20.3636C22.2561 20.3303 22.336 20.297 22.416 20.2637C20.8541 20.9164 19.1657 21.2528 17.4973 21.4792C17.5872 21.4659 17.6738 21.4559 17.7637 21.4426C15.3027 21.7689 12.7984 21.8256 10.3208 21.6457C9.65139 21.5958 8.98536 21.5292 8.31932 21.4426C8.40924 21.4559 8.49582 21.4659 8.58574 21.4792C6.91732 21.2528 5.22558 20.9164 3.66706 20.2637C3.74698 20.297 3.82691 20.3303 3.90683 20.3636C3.40064 20.1472 2.91777 19.8941 2.46819 19.5744C2.35497 19.4944 2.66467 19.7309 2.58142 19.6609C2.56144 19.6443 2.54146 19.6276 2.52148 19.611C2.47819 19.5744 2.43489 19.5377 2.39493 19.5011C2.32167 19.4312 2.2484 19.3612 2.1818 19.2846C2.16515 19.2647 2.14517 19.2413 2.12852 19.2214C2.04526 19.1248 2.28503 19.4378 2.22842 19.3512C2.20178 19.3113 2.17181 19.2746 2.1485 19.2347C2.10187 19.1581 2.05858 19.0782 2.02195 18.9949C2.05525 19.0748 2.08855 19.1548 2.12186 19.2347C2.07856 19.1281 2.04526 19.0182 2.02861 18.9017C2.04193 18.9916 2.05192 19.0782 2.06524 19.1681C2.05858 19.1148 2.05525 19.0615 2.05525 19.0116C2.05192 18.4887 1.59902 17.9892 1.0562 18.0125C0.513379 18.0358 0.0571441 18.4521 0.0571441 19.0116C0.0571441 19.8075 0.0571441 20.6034 0.0571441 21.3993C0.0571441 22.6315 0.0571441 23.8603 0.0571441 25.0925C0.0571441 25.3456 0.053814 25.5987 0.0571441 25.8484C0.0671347 26.5311 0.380172 27.1305 0.843067 27.6201C1.31595 28.1196 1.93537 28.4926 2.55478 28.7823C3.39398 29.1753 4.27648 29.4717 5.1723 29.7048C7.42683 30.2809 9.77794 30.5207 12.1024 30.5773C14.5667 30.6372 17.0477 30.4774 19.4721 30.0211C20.4145 29.8446 21.347 29.6182 22.2528 29.3051C23.0054 29.0421 23.768 28.7324 24.4341 28.2861C24.9736 27.9231 25.5197 27.4602 25.7928 26.8541C25.9393 26.5244 26.0292 26.2181 26.0325 25.8517C26.0325 25.7752 26.0325 25.6986 26.0325 25.622C26.0325 24.5363 26.0325 23.4507 26.0325 22.365C26.0325 21.3061 26.0325 20.2504 26.0325 19.1914C26.0325 19.1314 26.0325 19.0715 26.0325 19.0116C26.0325 18.4887 25.573 17.9892 25.0335 18.0125C24.4873 18.0325 24.0311 18.4488 24.0311 19.0082Z" fill="white"/>
</svg>
