<svg width="19" height="18" viewBox="0 0 19 18" fill="none" xmlns="http://www.w3.org/2000/svg">
<path d="M9.49886 2.57629C8.29688 2.57592 7.11547 2.8655 6.07072 3.41657C5.02597 3.96765 4.15382 4.76126 3.53997 5.71944C2.92612 6.67761 2.59169 7.76737 2.56954 8.88165C2.54738 9.99593 2.83827 11.0964 3.41362 12.0749L2.59379 14.7407C2.56494 14.8343 2.56417 14.9335 2.59156 15.0275C2.61896 15.1214 2.67347 15.2067 2.74925 15.2741C2.82502 15.3415 2.91918 15.3885 3.0216 15.4099C3.12402 15.4314 3.23081 15.4266 3.33048 15.396L6.03015 14.5619C6.95028 15.0549 7.9804 15.3451 9.0408 15.4099C10.1012 15.4747 11.1635 15.3125 12.1455 14.9357C13.1274 14.559 14.0028 13.9779 14.7037 13.2373C15.4047 12.4967 15.9126 11.6165 16.188 10.6649C16.4634 9.71319 16.499 8.71553 16.2921 7.74906C16.0851 6.78258 15.6411 5.87321 14.9945 5.09128C14.3478 4.30935 13.5159 3.67583 12.5629 3.23973C11.6099 2.80362 10.5616 2.57662 9.49886 2.57629ZM7.18947 7.92942C7.18947 7.78745 7.2503 7.65129 7.35857 7.5509C7.46684 7.45051 7.61369 7.39411 7.76681 7.39411H11.2309C11.384 7.39411 11.5309 7.45051 11.6391 7.5509C11.7474 7.65129 11.8082 7.78745 11.8082 7.92942C11.8082 8.07139 11.7474 8.20755 11.6391 8.30794C11.5309 8.40833 11.384 8.46473 11.2309 8.46473H7.76681C7.61369 8.46473 7.46684 8.40833 7.35857 8.30794C7.2503 8.20755 7.18947 8.07139 7.18947 7.92942ZM7.76681 9.53536H10.0762C10.2293 9.53536 10.3762 9.59176 10.4844 9.69215C10.5927 9.79254 10.6535 9.9287 10.6535 10.0707C10.6535 10.2126 10.5927 10.3488 10.4844 10.4492C10.3762 10.5496 10.2293 10.606 10.0762 10.606H7.76681C7.61369 10.606 7.46684 10.5496 7.35857 10.4492C7.2503 10.3488 7.18947 10.2126 7.18947 10.0707C7.18947 9.9287 7.2503 9.79254 7.35857 9.69215C7.46684 9.59176 7.61369 9.53536 7.76681 9.53536Z" fill="#121212"/>
</svg>
