<svg width="29" height="27" viewBox="0 0 29 27" fill="none" xmlns="http://www.w3.org/2000/svg">
<path fill-rule="evenodd" clip-rule="evenodd" d="M5.18049 11.3473L0.000100573 13.8033C4.75094 16.0563 9.50312 18.3094 14.254 20.5607L28.5078 13.8033L23.3274 11.3473L14.5225 15.5218C14.3588 15.5991 14.1637 15.6043 13.9868 15.5218L5.18049 11.3473ZM5.18049 17.6477L13.9854 21.8221C14.1491 21.8994 14.3443 21.9046 14.5211 21.8221L23.3273 17.6477L28.5077 20.1037L14.2539 26.8624L0 20.1037L5.18049 17.6477ZM14.254 14.2603C9.50312 12.0073 4.75094 9.75424 0.000100573 7.50289L14.254 0.744141L28.5078 7.50154C23.757 9.7545 19.0048 12.0076 14.254 14.2603Z" fill="white"/>
</svg>
